<svg xmlns="http://www.w3.org/2000/svg" width="121.323" height="190.421" viewBox="0 0 121.323 190.421"><defs><style>.a{fill:#ac1a1a;}</style></defs><g transform="translate(0 0)"><path class="a" d="M68.52,103.694v.7a.25.25,0,0,0,.253.253h39.919a.25.25,0,0,0,.253-.253v-.7a.25.25,0,0,0-.253-.253h-39.9a.254.254,0,0,0-.269.253" transform="translate(-10.115 50.098)"/><path class="a" d="M135.166,64.862a8.6,8.6,0,0,1,.221-1.756A12.245,12.245,0,0,1,137.1,59.3c1.914-2.942,4.855-5.235,6.927-5.235h5.535v5.615c0,.348-.316.38-.664.459s-.775.19-.807.047c0,0-.253-.87-1-.87-2.894,0-6.864,3.717-6.864,6.279V81.342l-1.9.285s-.664-6.817-.664-9.252a2.257,2.257,0,0,0-.838-1.9,2.809,2.809,0,0,0-1.613-.506m2.5,19.406H124.649V83.446l2.23-.032c0-1.9-.506-5.2.364-7.829a2.936,2.936,0,0,0-.3-2.072c-.063-.127-.111-.206-.111-.206h8.129c0,.142,0,.316.016.506a31.774,31.774,0,0,0,1.012,5.377,20.715,20.715,0,0,1,.127,4.286h1.439a2.635,2.635,0,0,1,2.357,1.408,3.4,3.4,0,0,1,.38,1.55c.032.822-.427,2.942-2.578,2.942m2.214,8.382c0,1.344-2.436,4.128-5.314,4.128v-7.86h5.33v3.733Zm-8.351,1.423a.533.533,0,0,1-.538.538H89.506a.533.533,0,0,1-.538-.538V94.406a.533.533,0,0,1,.538-.538h41.532a.533.533,0,0,1,.538.538Zm0,6.658a.25.25,0,0,1-.253.253h-2.641l-3.986,1.787a.785.785,0,0,1-.538,0l-3.986-1.787h-5.931l-3.986,1.787a.785.785,0,0,1-.538,0l-3.986-1.787h-5.219l-3.986,1.787a.785.785,0,0,1-.538,0l-3.986-1.787H89.316a.25.25,0,0,1-.253-.253v-2.815a.25.25,0,0,1,.253-.253h2.689l3.986-1.787a.785.785,0,0,1,.538,0l3.986,1.787h5.219l3.986-1.787a.785.785,0,0,1,.538,0l3.986,1.787h5.931l3.986-1.787a.785.785,0,0,1,.538,0l3.986,1.787h2.641a.25.25,0,0,1,.253.253Zm0,8.256a.533.533,0,0,1-.538.538H89.569a.533.533,0,0,1-.538-.538v-3.97a.533.533,0,0,1,.538-.538h41.469a.533.533,0,0,1,.538.538Zm-.538,2.531c-.127.126-3.274,3.321-3.274,3.321a1.3,1.3,0,0,1-.791.316l-33.229.016a1.186,1.186,0,0,1-.759-.332s-3.163-3.211-3.29-3.337-.016-.221.221-.221h40.868c.269,0,.38.111.253.237M93.776,152.892v-30.35A.53.53,0,0,1,94.3,122h32.137a.533.533,0,0,1,.538.538v30.35a.533.533,0,0,1-.538.538H94.314a.533.533,0,0,1-.538-.538m37.467,6.184a.975.975,0,0,1,.332.538v8.208c0,.142-.206.269-.459.269H115.65a.5.5,0,0,1-.49-.459,4.825,4.825,0,0,0-.095-.712,5.811,5.811,0,0,0-11.387,0c-.063.364-.095.712-.095.712a.5.5,0,0,1-.49.459H89.506c-.253,0-.459-.127-.459-.269v-8.208a.975.975,0,0,1,.332-.538l3.574-3.416a1.342,1.342,0,0,1,.791-.316h33.1a1.342,1.342,0,0,1,.791.316ZM123.81,186.2l.016,3.827a.25.25,0,0,1-.253.253h-10.3a.25.25,0,0,1-.253-.253v-4s1.06-.253.775-1.882h-8.335c-.269,1.613.759,1.882.759,1.882l.016,4a.25.25,0,0,1-.253.253H95.659a.25.25,0,0,1-.253-.253v-3.8s0-.047.063-.047c.079,0,1.977-.316,1.977-.316l3.986-5.251h16.7l3.638,5.251Zm-10.438-13.649a5.714,5.714,0,0,0,.917-1.044,5.454,5.454,0,0,0,.712-1.423h7.829v5.393c0,2.088-.285,3.068-2.4,3.068H102.934l5.425-4.6a3.2,3.2,0,0,0,.7.111c.127,0,.285.016.474.016a5.872,5.872,0,0,0,3.843-1.518m-17.3.332v-2.8h2.847a5.135,5.135,0,0,1-2.1,2.42c-.047.032-.743.364-.743.38M85.742,191.72c-1.85,1.376-5.551,2.341-6.991-.237-.6-1.091-.095-2.768.569-3.7a18.47,18.47,0,0,1,4.1-3.748c1.961-1.5,24.752-18,24.752-18a2.453,2.453,0,0,1,1.344-.364,2.33,2.33,0,0,1,2.4,2.42,2.678,2.678,0,0,1-.016.364,3.094,3.094,0,0,1-.822,1.534c-.206.221-23.249,20.181-25.337,21.731M68.376,174.307s-9.869-1.36-10.2-1.819c-.459-.648-.316-2.815.4-3.005a18.092,18.092,0,0,1,2.942-.047l3.859.016s.569-.791.6-.791h20.4v1.408a.53.53,0,0,0,.522.538h7.781v2.262a1.4,1.4,0,0,1-.206.633,1.717,1.717,0,0,1-1.5.791H68.376ZM48.37,148.812A33.191,33.191,0,0,1,43.546,136.9c-.822-3.543-.933-5.472-.648-6.484.4-1.455,2.657-1.329,3.574-.459a3.341,3.341,0,0,1,.775,2.515c0,2.736,2.451,14.282,6.627,19.532C57.7,156.83,65.008,163.3,70.116,165.229a8.4,8.4,0,0,0,1.313.427,3.2,3.2,0,0,0-.554-.427c-2.8-1.835-14.408-8.746-18.409-18.821-2.657-6.69-4.08-12.953-3.242-15.183a2.957,2.957,0,0,1,1.866-1.471,2.488,2.488,0,0,1,2.009.506c1.139.87,1.344,2.467,1.455,3.8.427,4.666.364,9.458,2.183,13.855a29.836,29.836,0,0,0,17.413,17c-4.523-3.163-15.547-12.7-16.606-23.455a49.78,49.78,0,0,1-.3-6.152c.032-1.455-.047-3.59,1.06-4.713a2.723,2.723,0,0,1,3.891.19c.807,1.091,1.139,3.432,1.06,8.129-.127,8.588,3.448,19.738,13.064,25.21-4.539-5.709-10.043-13.744-10.533-23.186-.206-4.112-.111-6.943.728-8.7.712-1.518,1.961-2.246,3.986-2.357a4,4,0,0,1,3.748,1.866,8.708,8.708,0,0,1,.9,4.254c.016,1.771-.19,3.527-.127,5.3.079,1.8.237,3.59.459,5.377.253,2.072.569,4.128.981,6.168a52.852,52.852,0,0,0,1.471,5.8,17.974,17.974,0,0,0,1.882,4.254c.063.095.237.253.253.364a168.216,168.216,0,0,1-1.914-25.447,13.011,13.011,0,0,1,.949-5.472,3.876,3.876,0,0,1,3.242-2.372c2.8-.285,4.318,1.882,4.9,4.349a10.975,10.975,0,0,1,.285,2.009c.016.316.032.743.032,1.218,0,.807,0,1.645-.016,2.5-.016.427-.016.807-.032,1.107v.127A170.707,170.707,0,0,1,85.6,163.267s.6.332.822-.127l-.047,3.4H70.259a13.98,13.98,0,0,1-3.527-1.329,45.355,45.355,0,0,1-18.362-16.4M91.4,129.865v23.977l-1.85,2.135.079-18.062c-.348-8.019,1.771-8.05,1.771-8.05m-46.8-14.218c.332-.838.569-1.3.569-1.3a10.62,10.62,0,0,0,8.113,3.211c4.428,0,8.019-1.629,9.885-4.428,1.392-2.1,2.483-5.883-.095-12.083-.87-2.072-1.771-4.128-2.673-6.137,0,0,.348-.538.822-1.408,1.344-2.341,3.812-7.07,4.033-10.47.206-3.258,0-11.087,0-11.087,2.926-1.629,6.057-4.476,8.1-10.517a20.916,20.916,0,0,0,1.06-6.469c.016-.427,0-.886-.016-1.329h28.5a3.578,3.578,0,0,1,2.135,1.107A8.847,8.847,0,0,1,106.9,57.3c.633,1.3.728,2.42.285,2.973-4.207,5.267-6.168,7.244-6.295,14.5v.633c-4.95.269-7.18,3.606-7.18,6.927v8.888s-6.042.016-6.927.016a.726.726,0,0,0-.791.807v24.166a1.509,1.509,0,0,0,.411,1.139l.19.206,3.242,3.305,1.3,1.329v2.293s.047,2.246.047,2.262c0,.127-.917.585-1.06.68a4.791,4.791,0,0,0-1.724,2.736,5.1,5.1,0,0,0-2.546-2.878,6.733,6.733,0,0,0-5.282-.079,11.99,11.99,0,0,0-2.23,1.17c-.142.095-1.582,1.218-1.439,1.408a8.776,8.776,0,0,0-6.263-2.989c-2.467,0-4.413,1.661-5.615,2.657a17.553,17.553,0,0,0-1.265-1.218,4.434,4.434,0,0,0-3.527-1.281,6.307,6.307,0,0,0-3.733,1.329c-.68.7-1.265.411-2.388-.775a4.175,4.175,0,0,0-5.061,0c-1,1-1,1-1.85.158-1.028-1-3.163-1.06-4.413-.7-.032-.285-.032-.554-.063-.822a25.907,25.907,0,0,1,1.882-10.5M59.662,45.962a1.272,1.272,0,0,1,.743-.459,1.706,1.706,0,0,1,.933.127,4.49,4.49,0,0,1,1.819,1.234,5.477,5.477,0,0,1,.728,1.123,8.588,8.588,0,0,1,1.123,3.464c0,.079.158,1-.174,1-.047,0-1.3-.047-1.3-.047s-.206,0-.554-.474c-.269-.364-.68-.9-1.075-1.455-.411-.554-.822-1.139-1.107-1.518-.807-1.075-1.6-2.1-1.139-2.989m.427,10.407c.728-.728,1.487-1.471,2.262-2.151a2.422,2.422,0,0,1,.791-.538,3.85,3.85,0,0,1,1.139-.063c.807,0,.775.047.712.981-.032.411-.032.822-.079,1.218a15.22,15.22,0,0,1-.4,2.546,7.646,7.646,0,0,1-1.423,3.258,2.6,2.6,0,0,1-.9.759,1.4,1.4,0,0,1-1.3-.158,1.7,1.7,0,0,1-.459-.49c-.237-.316-.459-.648-.68-.981-.917-1.408-1.376-2.657.332-4.381m-2.151-5.52.095.127c.285.38.712.949,1.123,1.534-.427.411-.917.854-1.471,1.423a6.554,6.554,0,0,0-2.167,4.855,7.379,7.379,0,0,0,1.392,3.875c.079.142.19.285.269.443-.063-.127-.427-.269-.554-.332a5.033,5.033,0,0,0-2.388-.585,7.968,7.968,0,0,0-5.9,2.388c-.237.285-.459.585-.68.886-1.882-4.191-3.321-7.924-3.543-9.426a12.477,12.477,0,0,1,2.8-8.651A9.208,9.208,0,0,1,54.221,44.3a19.446,19.446,0,0,1,2.357.174c-1.329,2.72.427,5.108,1.36,6.374m3.938,31.979c-.063,1.771-1.835,5.456-3.037,7.813-1.977-4.16-6.263-13.554-6.263-13.554.427.047,1.6.237,2.04.237a9.246,9.246,0,0,0,5.14-1.487,19,19,0,0,1,2.183-.949s.016,5.346-.063,7.94m-12.795,18.8a4.95,4.95,0,0,1,4.08,2.088c.933,1.439.854,3.464-.237,5.852l-.506,1.186a3.342,3.342,0,0,0,1,.316,7.763,7.763,0,0,0,.854.016,2.709,2.709,0,0,0,2.372-1.281c1.107-1.8.38-5.267-2.262-10.533-3.4-6.864-6.184-12.368-8.414-16.78-7.623-15.1-9.2-18.251-10.565-24.593a19.508,19.508,0,0,1,3.986-15.721,17.031,17.031,0,0,1,13.507-6.5,19.055,19.055,0,0,1,14.724,6.31,17.919,17.919,0,0,1,1.17,1.487,19.585,19.585,0,0,1,3.226,7.671,20.135,20.135,0,0,1-.648,9.584c-2.372,7.022-6.231,9.189-9.442,10.486a23.492,23.492,0,0,0-4.1,1.756,5.777,5.777,0,0,1-3.226.917c-2.151,0-4.523-1.044-4.729-4.017a3.76,3.76,0,0,1,.949-2.973,4.549,4.549,0,0,1,3.59-1.281,3.476,3.476,0,0,1,1.866,1.123,4.13,4.13,0,0,0,2.847,1.2,2.575,2.575,0,0,0,.49-.047,9.511,9.511,0,0,0,5.377-3.4c.221-.253.427-.538.648-.838a15.224,15.224,0,0,0,2.135-4.27,15.839,15.839,0,0,0,.206-8.778,12.359,12.359,0,0,0-7.18-8.525,14.2,14.2,0,0,0-2.277-.743,18.386,18.386,0,0,0-2.641-.427c-.554-.047-1.123-.079-1.676-.079a12.686,12.686,0,0,0-9.9,4.254A15.947,15.947,0,0,0,40.7,56.464c.569,4.254,7.291,17.777,7.576,18.33.68,1.392,1.55,3.1,2.531,5.093,1.882,3.748,4.223,8.4,6.564,13.412,1.281,2.768,2.578,5.646,3.78,8.541,1.756,4.223,1.85,7.734.253,10.09-1.455,2.23-4.413,3.5-8.129,3.5-4.334,0-6.722-2.119-7.955-4.539a10.738,10.738,0,0,1-1.107-4.634,4.892,4.892,0,0,1,4.871-4.618M98.126,42.863s7.133,2.309,8.161,2.72c1.028.38,1.313.554,1.265.965a39.532,39.532,0,0,1-2.451,4.128c-.443.633-.664.838-2.2.838H74.2c-.079-.459-.142-.886-.237-1.313a22.571,22.571,0,0,0-.538-2.262h28.626a.8.8,0,0,0,.791-.822c0-.459-1.945-.822-2.4-.822h-27.6a17.594,17.594,0,0,0-1.9-3.432H98.126ZM78.578,37.5a2.026,2.026,0,0,0,1.36-.19c.506-.348.411-1.06.3-1.582a10.755,10.755,0,0,1-.364-2.357c0-1.993,1.091-4.365,3.479-7.244h0c2.4,2.878,3.479,5.251,3.479,7.244a11.944,11.944,0,0,1-.348,2.357c-.111.522-.221,1.234.285,1.582a2.026,2.026,0,0,0,1.36.19c.158-.032,1.439-.3,1.439-.443-.016,1.044,0,2.088,0,3.147H77.107c0-1.044.016-2.1,0-3.147.032.158,1.329.411,1.471.443M109.956,66.1c1.234,0,4.16.38,4.349,8.651v.822h-8.7c0-.285.016-.554.016-.822.174-8.256,3.1-8.651,4.333-8.651m7.1,12.1c3.037,0,4.745,1.313,4.95,3.021v9.758a.25.25,0,0,1-.253.253H96.781a.25.25,0,0,1-.253-.253V82.339c0-2.009,1.329-4.144,5.093-4.144Zm16.606-27.5V69.844a1.22,1.22,0,0,1-.19.664,1.126,1.126,0,0,1-1.107.506h-2.894a.25.25,0,0,1-.253-.253V50.691a.25.25,0,0,1,.253-.253h3.922a.254.254,0,0,1,.269.253m-8.1-22.316a6.055,6.055,0,0,1,2.546-4.824,6.474,6.474,0,0,1-3.163-5.9,6.875,6.875,0,0,1,3.922-6.073v-1.8h5v1.8a6.872,6.872,0,0,1,3.906,6.073,6.443,6.443,0,0,1-3.179,5.9,6.055,6.055,0,0,1,2.546,4.824,6.912,6.912,0,0,1-2.7,5.14,4.735,4.735,0,0,1,1.914,4.049,4.261,4.261,0,0,1-2.483,3.891,5.77,5.77,0,0,1,1.265,3.653,3.538,3.538,0,0,1-.68,1.961,7.259,7.259,0,0,1-1.613,1.645c-.364.285-.633.459-.633.459h-1.661a7.645,7.645,0,0,1-.617-.459,7.448,7.448,0,0,1-1.582-1.582,3.377,3.377,0,0,1-.743-2.009,5.679,5.679,0,0,1,1.281-3.653,4.271,4.271,0,0,1-2.531-3.891,4.718,4.718,0,0,1,1.945-4.049,6.988,6.988,0,0,1-2.736-5.156m24.008,22.237h-5.536c-2.8,0-5.33,1.835-6.927,3.369V50.438a3.083,3.083,0,0,0-.158-1.012,7.045,7.045,0,0,0,1.566-4.3,9.645,9.645,0,0,0-.4-2.768,7.6,7.6,0,0,0,1.645-4.776,8.744,8.744,0,0,0-.886-3.906,9.357,9.357,0,0,0,1.661-5.282,9.254,9.254,0,0,0-1.234-4.618,10.483,10.483,0,0,0,1.85-6.1A10.054,10.054,0,0,0,137.254,9.7a3.434,3.434,0,0,0-3.4-3.337h-5A3.451,3.451,0,0,0,125.424,9.7a10.029,10.029,0,0,0-3.906,7.971,10.574,10.574,0,0,0,1.85,6.121,8.988,8.988,0,0,0-1.234,4.6,9.317,9.317,0,0,0,1.661,5.282,8.537,8.537,0,0,0-.886,3.906,7.51,7.51,0,0,0,1.645,4.776,9.18,9.18,0,0,0-.411,2.768,7.021,7.021,0,0,0,1.771,4.507,4.5,4.5,0,0,0-.095.807V69.971a3.379,3.379,0,0,0-2.056,5.014,11.889,11.889,0,0,0-.411,2.088,8.357,8.357,0,0,0-5.63-2.277c-.079-4.318-.87-7.418-2.372-9.442a6.579,6.579,0,0,0-5.393-2.7c-.079,0-.19.032-.269.032a1.088,1.088,0,0,1,.174-.206c1.328-1.645,1.376-4.049.142-6.627a12.283,12.283,0,0,0-2.119-3.1.219.219,0,0,1,.047-.063c.063-.095.127-.158.19-.269.016-.016,2.61-3.574,2.831-5.377a3.96,3.96,0,0,0-1.613-3.748,7.62,7.62,0,0,0-1.835-.9c-1.06-.411-7.1-2.372-8.3-2.768a3.442,3.442,0,0,0-1.06-.158H93.017V37.09a3.447,3.447,0,0,0-1.566-2.91,3.2,3.2,0,0,0-1.186-.459v-.3c0-2.894-1.376-5.978-4.286-9.458a3.422,3.422,0,0,0-5.235,0c-2.894,3.464-4.286,6.564-4.286,9.458v.316a2.789,2.789,0,0,0-1.186.49,3.448,3.448,0,0,0-1.566,2.878v2.372H70.923a3.161,3.161,0,0,0-.886.111,22.433,22.433,0,0,0-17.16-7.307,20.31,20.31,0,0,0-16.179,7.8c-4.16,5.2-6.01,12.51-4.681,18.6,1.455,6.785,3.084,10,10.865,25.416,1.8,3.59,4.207,8.335,7.133,14.2-.332-.032-.648-.047-.981-.047a8.293,8.293,0,0,0-8.272,8.082,14.253,14.253,0,0,0,1.487,6.231c-.063.095-.111.158-.158.237a28.971,28.971,0,0,0-2.768,14.519,3.593,3.593,0,0,0,.49,1.487c-.807,1.819-.68,4.413.348,8.936a36.862,36.862,0,0,0,5.282,13,49.8,49.8,0,0,0,14.851,14.93c.174.127.38.237.569.364h-.506a9.826,9.826,0,0,0-2.91.174,3.737,3.737,0,0,0-2.531,2.562c-.016.032-1.139,3.685.427,5.836.981,1.281,2.1,1.566,7.449,2.42,2.515.4,4.95.743,5.045.743a2.316,2.316,0,0,0,.459.032H86c-1.85,1.376-3.5,2.578-4.713,3.527-4.16,3.163-6.026,5.615-6.295,8.24a6.282,6.282,0,0,0,1.771,4.887,6.749,6.749,0,0,0,5.108,2.325,9.276,9.276,0,0,0,5.14-1.74c.743-.506,2.388-1.85,4.808-3.875a3.408,3.408,0,0,0,3.258,2.4h10.818a3.436,3.436,0,0,0,3.385-2.942,3.46,3.46,0,0,0,.965,1.93,3.4,3.4,0,0,0,2.42,1.012h10.818a3.415,3.415,0,0,0,3.416-3.432v-4.08a3.409,3.409,0,0,0-2.878-3.4l-.459-.095-.617-1.044c1.8-.838,3.226-2.673,3.226-5.994v-3.8h4.413a3.456,3.456,0,0,0,3.448-3.448v-8.7a3.434,3.434,0,0,0-1.06-2.483l-3.448-3.321V122.352l3.7-3.748a4.9,4.9,0,0,0,1.439-3.717v-9.553a9.172,9.172,0,0,0,5.883-2.4c.838-.728,2.736-2.689,2.736-5.156V94.026a3.525,3.525,0,0,0-1.582-2.894,6.8,6.8,0,0,0,1.882-4.7,6.888,6.888,0,0,0-.7-3,3.473,3.473,0,0,0,.7-2.072V65.669a6.3,6.3,0,0,1,2.562-2.625,3.531,3.531,0,0,0,1.787.585h.158c3.812,0,4.824-2.483,4.824-3.954V54.06a3.315,3.315,0,0,0-3.337-3.448" transform="translate(-31.591 -6.36)"/><path class="a" d="M99.369,52.34H92.41c0,.506,0,1,.016,1.487h7.133a5.812,5.812,0,0,0-.174-1.408.684.684,0,0,1-.016-.079" transform="translate(3.779 20.381)"/></g></svg>